<?xml version="1.0" encoding="utf-8"?>
<?xml-stylesheet type="text/xsl" href="rss1.xsl"?>
<rss version="2.0" xmlns:atom="http://www.w3.org/2005/Atom" xmlns:content="http://purl.org/rss/1.0/modules/content/" xmlns:dc="http://purl.org/dc/elements/1.1/" xmlns:media="http://search.yahoo.com/mrss/">
<channel>
 <title>Getty</title>
 <link>http://www.gettyimg.com/</link>
 <atom:link href="http://www.gettyimg.com/" rel="self" type="application/rss+xml" />

 
                <item>
                <title><![CDATA[【HD Live Performances】FEED - Global Citizen Festival (2021) New York City 1080i HDTV Backhaul MPA2.0 H.264-TrollHD]]></title>
                <link><![CDATA[https://sharemania.us/threads/global-citizen-festival-2021-new-york-city-1080i-hdtv-backhaul-mpa2-0-h-264-trollhd.250587/]]></link>
                <description><![CDATA[<article>
<blockquote class="messageText SelectQuoteContainer ugc baseHtml">
<div style="padding-left: 30px"><div style="padding-left: 30px"><div style="padding-left: 30px"><div style="padding-left: 30px"><div style="padding-left: 30px"><b><span style="font-size: 26px"><span style="color: rgb(255, 77, 77)">Global Citizen Festival (2021) </span></span></b>​</div></div></div></div><b><span style="color: rgb(255, 77, 77)"><span style="font-size: 22px">New York City 1080i HDTV Backhaul MPA2.0 H.264-TrollHD</span></span></b>​</div><br>
<img src="https://images2.imgbox.com/6b/0e/oDcAvfrM_o.jpg" class="bbCodeImage LbImage" alt="[​IMG]" data-url="https://images2.imgbox.com/6b/0e/oDcAvfrM_o.jpg" style=""><br>
<br>
<div class="bbCodeBlock bbCodeCode">
<div class="type">Code:</div>
<pre>General
Unique ID                      : 165632455408772262582378650919781166491 (0x7C9BA68B52EA4833155FF0F4C8866D9B)
Format                         : Matroska
Format version                 : Version 4
File size                      : 41.7 GiB
Duration                       : 6 h 20 min
Overall bit rate mode          : Constant
Overall bit rate               : 15.7 Mb/s
Encoded date                   : UTC 2024-06-08 07:01:11
Writing application            : mkvmerge v77.0 ('Elemental') 64-bit
Writing library                : libebml v1.4.4 + libmatroska v1.7.1

Video
ID                             : 1
Format                         : AVC
Format/Info                    : Advanced Video Codec
Format profile                 : High@L4
Format settings                : CABAC / 3 Ref Frames
Format settings, CABAC         : Yes
Format settings, Reference fra : 3 frames
Codec ID                       : V_MPEG4/ISO/AVC
Duration                       : 6 h 20 min
Bit rate mode                  : Constant
Bit rate                       : 15.4 Mb/s
Width                          : 1 920 pixels
Height                         : 1 080 pixels
Display aspect ratio           : 16:9
Frame rate mode                : Variable
Frame rate                     : 59.940 (60000/1001) FPS
Original frame rate            : 29.970 (30000/1001) FPS
Color space                    : YUV
Chroma subsampling             : 4:2:0
Bit depth                      : 8 bits
Scan type                      : Interlaced
Scan type, store method        : Separated fields
Scan order                     : Top Field First
Bits/(Pixel*Frame)             : 0.124
Stream size                    : 40.8 GiB (98%)
Language                       : English
Default                        : Yes
Forced                         : No
Color range                    : Limited
Color primaries                : BT.709
Transfer characteristics       : BT.709
Matrix coefficients            : BT.709

Audio
ID                             : 2
Format                         : MPEG Audio
Format version                 : Version 1
Format profile                 : Layer 2
Codec ID                       : A_MPEG/L2
Codec ID/Hint                  : MP2
Duration                       : 6 h 20 min
Bit rate mode                  : Constant
Bit rate                       : 320 kb/s
Channel(s)                     : 2 channels
Sampling rate                  : 48.0 kHz
Frame rate                     : 41.667 FPS (1152 SPF)
Compression mode               : Lossy
Stream size                    : 871 MiB (2%)
Language                       : English
Default                        : No
Forced                         : No

</pre>
</div>
<div class="bbCodeBlock bbCodeVfcHH HiddenContent">
<div class="attribution type">Hidden Content:</div>
<blockquote>You must either reply or click 'Like' to see the hidden information contained here.</blockquote>
</div><br>
<br>
<b><span style="color: rgb(255, 77, 77)">Credits goes to <a href="https://sharemania.us/members/1219/" class="username" data-user="1219, @TrollHD">@TrollHD</a> !!!<br>
<br>
<img src="styles/default/xenforo/smilies/super_man-48.png" class="mceSmilie" alt=":super:" title="Super Man    :super:"><img src="styles/default/xenforo/smilies/super_man-48.png" class="mceSmilie" alt=":super:" title="Super Man    :super:"><img src="styles/default/xenforo/smilies/super_man-48.png" class="mceSmilie" alt=":super:" title="Super Man    :super:"></span></b>
<div class="messageTextEndMarker">&nbsp;</div>
</blockquote>
</article>]]></description>
                <author><![CDATA[Dream66]]></author>
                </item>

                
                <item>
                <title><![CDATA[【BLU-RAY】BD REMUX - ayumi hamasaki - 2024 UNRELEASED LIVE BOX A (Blu-Ray Lossless MKV) [2024.03.13]]]></title>
                <link><![CDATA[https://sharemania.us/threads/ayumi-hamasaki-2024-unreleased-live-box-a-blu-ray-lossless-mkv-2024-03-13.250586/]]></link>
                <description><![CDATA[<article>
<blockquote class="messageText SelectQuoteContainer ugc baseHtml">
MERCI
<div class="messageTextEndMarker">&nbsp;</div>
</blockquote>
</article>]]></description>
                <author><![CDATA[kuraudie]]></author>
                </item>

                </channel></rss>